<?xml version="1.0" standalone="no"?>
<!DOCTYPE svg PUBLIC "-//W3C//DTD SVG 20010904//EN"
 "http://www.w3.org/TR/2001/REC-SVG-20010904/DTD/svg10.dtd">
<svg version="1.0" xmlns="http://www.w3.org/2000/svg"
 width="400.000000pt" height="400.000000pt" viewBox="0 0 400.000000 400.000000"
 preserveAspectRatio="xMidYMid meet">
<metadata>
Created by potrace 1.11, written by Peter Selinger 2001-2013
</metadata>
<g transform="translate(0.000000,400.000000) scale(0.100000,-0.100000)"
fill="#000000" stroke="none">
<path d="M1815 3200 c-294 -34 -546 -166 -713 -374 -139 -172 -221 -351 -273
-596 -19 -90 -23 -136 -23 -320 -1 -235 15 -351 70 -517 154 -460 506 -732
989 -761 415 -25 730 84 964 334 162 173 265 377 322 644 21 93 23 132 23 350
0 216 -2 257 -22 347 -107 490 -416 796 -889 878 -108 19 -343 27 -448 15z
m400 -316 c92 -20 235 -90 311 -153 146 -119 251 -315 295 -551 18 -98 16
-367 -5 -479 -61 -331 -217 -588 -418 -688 -126 -62 -203 -78 -393 -78 -184 0
-255 12 -385 65 -199 80 -347 265 -424 532 -70 240 -56 614 30 844 111 298
347 484 663 524 84 11 236 3 326 -16z"/>
<path d="M1410 2355 l0 -95 555 0 555 0 0 95 0 95 -555 0 -555 0 0 -95z"/>
<path d="M1420 1975 l0 -95 395 0 395 0 0 95 0 95 -395 0 -395 0 0 -95z"/>
<path d="M1420 1615 l0 -95 610 0 610 0 0 95 0 95 -610 0 -610 0 0 -95z"/>
<path d="M1440 1285 l0 -95 370 0 370 0 0 95 0 95 -370 0 -370 0 0 -95z"/>
</g>
</svg>
